<svg xmlns="http://www.w3.org/2000/svg" version="1.1" xmlns:xlink="http://www.w3.org/1999/xlink" xmlns:svgjs="http://svgjs.dev/svgjs" width="1000" height="1000" viewBox="0 0 1000 1000"><rect width="1000" height="1000" fill="#ffffff"></rect><g transform="matrix(0.7,0,0,0.7,149.57575757575756,282.1265587044535)"><svg viewBox="0 0 396 247" data-background-color="#ffffff" preserveAspectRatio="xMidYMid meet" height="623" width="1000" xmlns="http://www.w3.org/2000/svg" xmlns:xlink="http://www.w3.org/1999/xlink"><g id="tight-bounds" transform="matrix(1,0,0,1,0.2400000000000091,-0.09999999999999432)"><svg viewBox="0 0 395.52 247.2" height="247.2" width="395.52"><g><svg></svg></g><g><svg viewBox="0 0 395.52 247.2" height="247.2" width="395.52"><g transform="matrix(1,0,0,1,75.54432,67.23079897505056)"><svg viewBox="0 0 244.43135999999998 112.73840204989887" height="112.73840204989887" width="244.43135999999998"><g><svg viewBox="0 0 244.43135999999998 112.73840204989887" height="112.73840204989887" width="244.43135999999998"><g><svg viewBox="0 0 244.43135999999998 112.73840204989887" height="112.73840204989887" width="244.43135999999998"><g><svg viewBox="0 0 244.43135999999998 112.73840204989887" height="112.73840204989887" width="244.43135999999998"><g><svg viewBox="0 0 244.43135999999998 112.73840204989887" height="112.73840204989887" width="244.43135999999998"><g><svg viewBox="0 0 244.43135999999998 112.73840204989887" height="112.73840204989887" width="244.43135999999998"><g transform="matrix(1,0,0,1,0,0)"><svg width="244.43135999999998" viewBox="0.550000011920929 -29.450000762939453 74.14999389648438 34.20000076293945" height="112.73840204989887" data-palette-color="#7a26c1"><path d="M34.85 1.25L34.85 1.25Q33.3 1.25 32.6-0.13 31.9-1.5 31.9-3.63 31.9-5.75 32.8-9.45L32.8-9.45Q31.05-9.6 26.85-10.15L26.85-10.15Q19.9-1.55 15.3 1.8L15.3 1.8Q11.35 4.75 7.1 4.75L7.1 4.75Q4.4 4.75 2.48 3.4 0.55 2.05 0.55-0.6L0.55-0.6Q0.55-1.1 0.8-1.53 1.05-1.95 1.3-1.75 1.55-1.55 1.55-0.6L1.55-0.6Q1.55 1.1 2.88 1.95 4.2 2.8 6.1 2.8L6.1 2.8Q10.2 2.8 14.18 0.13 18.15-2.55 25-10.35L25-10.35Q17.65-11.25 15.3-11.25L15.3-11.25Q8.95-11.25 7.45-7.1L7.45-7.1Q7.25-6.55 7.25-6.08 7.25-5.6 7.45-5.23 7.65-4.85 7.53-4.63 7.4-4.4 7.1-4.42 6.8-4.45 6.6-4.75L6.6-4.75Q6.05-5.7 6.05-6.6L6.05-6.6Q6.05-9.7 7.18-11.18 8.3-12.65 9.8-13.05L9.8-13.05Q11.6-13.55 14-13.55 16.4-13.55 26.1-11.65L26.1-11.65Q28.8-14.75 34.3-21.63 39.8-28.5 39.8-28.6L39.8-28.6 39.85-28.6Q39.9-28.65 40.1-28.75L40.1-28.75Q41.3-29.45 42.7-29.45L42.7-29.45Q43.2-29.45 43.2-28.95L43.2-28.95Q43.2-28.9 43.15-28.83 43.1-28.75 43.05-28.63 43-28.5 42.95-28.4L42.95-28.4Q38.15-20.45 35.5-10.5L35.5-10.5 35.35-10.15 36.6-10.1Q37-10.05 38.02-10.05 39.05-10.05 40.2-10.53 41.35-11 41.68-11.55 42-12.1 42.25-11.8 42.5-11.5 42.3-11.15L42.3-11.15Q41.75-10.15 40.35-9.7L40.35-9.7Q39.15-9.2 37.98-9.2 36.8-9.2 36.45-9.2L36.45-9.2 35.1-9.25Q34.15-4.9 34.15-2.33 34.15 0.25 35.55 0.25L35.55 0.25Q36.9 0.25 39.75-1.9 42.6-4.05 45.1-7.45L45.1-7.45Q45.25-7.65 45.5-7.55 45.75-7.45 45.75-7.3 45.75-7.15 45.68-6.93 45.6-6.7 44.9-5.8L44.9-5.8Q42.8-3 39.75-0.5L39.75-0.5Q37.55 1.25 34.85 1.25ZM37.6-23.9L37.6-23.9Q37.65-24 37.73-24.18 37.8-24.35 37.85-24.45L37.85-24.45Q31.6-15.9 27.8-11.25L27.8-11.25 33.05-10.4Q34.45-15.85 37.6-23.9ZM74.7-26.4L74.7-26.4Q74.7-25.3 73.8-23.85L73.8-23.85Q73.05-22.5 72.12-22 71.2-21.5 71.2-22.1L71.2-22.1Q71.2-22.15 71.75-22.7L71.75-22.7Q73.4-24.25 73.4-25.25L73.4-25.25Q73.4-27.4 69.15-27.4L69.15-27.4Q67.35-27.4 64.4-26.73 61.45-26.05 58.7-24.55L58.7-24.55Q55.5-22.8 55.5-21.5L55.5-21.5Q55.5-20.45 57.45-19.5L57.45-19.5Q58.5-19 61.62-17.82 64.75-16.65 66.67-15.78 68.6-14.9 70.32-13.3 72.05-11.7 72.05-9.75 72.05-7.8 69.75-5.5L69.75-5.5Q66.25-2.15 60.65 0.08 55.05 2.3 51.05 2.3L51.05 2.3Q43.15 2.3 43.15-2.15 43.15-6.6 48-9.7L48-9.7Q52-12.45 56.4-12.45L56.4-12.45Q57.45-12.45 57.35-12.1L57.35-12.1Q57.25-11.75 55.85-11.73 54.45-11.7 52.25-10.78 50.05-9.85 48.15-8.1L48.15-8.1Q45.65-5.85 45.65-3.6L45.65-3.6Q45.65-2.2 47-1.1 48.35 0 52.15 0 55.95 0 59.65-1.2L59.65-1.2Q67.65-3.85 69.65-7L69.65-7Q70.45-8.15 70.45-8.95L70.45-8.95Q70.45-11.25 67.65-12.55L67.65-12.55Q64.4-14.05 58.55-16L58.55-16Q56.3-16.75 54.72-17.98 53.15-19.2 53.15-20.93 53.15-22.65 55.02-24.33 56.9-26 59.55-27L59.55-27Q65.25-29.15 69.2-29.15L69.2-29.15Q74.7-29.15 74.7-26.4Z" opacity="1" transform="matrix(1,0,0,1,0,0)" fill="#7a26c1" class="undefined-text-0" data-fill-palette-color="primary" id="text-0"></path></svg></g></svg></g></svg></g></svg></g><g></g></svg></g></svg></g></svg></g><g><path d="M108.036 40.616A122.216 122.216 0 0 1 287.484 40.616L277.317 40.616A112.049 112.049 0 0 0 118.203 40.616L108.036 40.616M108.036 206.584A122.216 122.216 0 0 0 287.484 206.584L277.317 206.584A112.049 112.049 0 0 1 118.203 206.584L108.036 206.584" fill="#7a26c1" stroke="transparent" data-fill-palette-color="tertiary"></path></g></svg></g><defs></defs></svg><rect width="395.52" height="247.2" fill="none" stroke="none" visibility="hidden"></rect></g></svg></g></svg>